<svg width="64" height="64" viewBox="0 0 64 64" fill="none" xmlns="http://www.w3.org/2000/svg">
<circle cx="32" cy="32" r="30.75" fill="#E93F00" stroke="black" stroke-width="2.5"/>
<path d="M41.8133 26.7093C41.8133 32.1291 37.4198 36.5227 32 36.5227C26.5803 36.5227 22.1867 32.1291 22.1867 26.7093C22.1867 21.2896 26.5803 16.896 32 16.896C37.4198 16.896 41.8133 21.2896 41.8133 26.7093ZM24.1304 26.7093C24.1304 31.0556 27.6538 34.5789 32 34.5789C36.3463 34.5789 39.8696 31.0556 39.8696 26.7093C39.8696 22.3631 36.3463 18.8397 32 18.8397C27.6538 18.8397 24.1304 22.3631 24.1304 26.7093Z" fill="black"/>
<path d="M16.384 43.8613C16.384 42.8304 16.5871 41.8095 16.9816 40.857C17.3761 39.9045 17.9544 39.0391 18.6834 38.3101C19.4124 37.5811 20.2779 37.0028 21.2303 36.6083C22.1828 36.2137 23.2037 36.0107 24.2347 36.0107L24.2347 37.9733C23.4614 37.9733 22.6958 38.1256 21.9814 38.4215C21.2671 38.7174 20.618 39.1511 20.0712 39.6979C19.5245 40.2446 19.0908 40.8937 18.7949 41.6081C18.499 42.3225 18.3467 43.0881 18.3467 43.8613H16.384Z" fill="black"/>
<path d="M47.7867 43.8613C47.7867 42.8304 47.5836 41.8095 47.1891 40.857C46.7946 39.9045 46.2163 39.0391 45.4873 38.3101C44.7583 37.5811 43.8928 37.0028 42.9403 36.6083C41.9878 36.2137 40.967 36.0107 39.936 36.0107L39.936 37.9733C40.7092 37.9733 41.4749 38.1256 42.1893 38.4215C42.9036 38.7174 43.5527 39.1511 44.0995 39.6979C44.6462 40.2446 45.0799 40.8937 45.3758 41.6081C45.6717 42.3225 45.824 43.0881 45.824 43.8613L47.7867 43.8613Z" fill="black"/>
<path d="M24.2346 36.0107L32.0853 38.7413V40.704L24.2346 37.9733V36.0107Z" fill="black"/>
<path d="M24.2346 36.0107L32.0853 38.7413V40.704L24.2346 37.9733V36.0107Z" fill="black"/>
<path d="M32.0853 38.7413L39.936 36.0107V37.9733L32.0853 40.704V38.7413Z" fill="black"/>
</svg>
